<svg width="76" height="42" viewBox="0 0 76 42" fill="none" xmlns="http://www.w3.org/2000/svg">
<path d="M17.1613 36.4737C17.1613 39.5258 14.7221 42 11.7133 42C8.7044 42 6.26523 39.5258 6.26523 36.4737C6.26523 33.4216 8.7044 30.9474 11.7133 30.9474C14.7221 30.9474 17.1613 33.4216 17.1613 36.4737Z" fill="#D9D9D9"/>
<path d="M70.0072 36.4737C70.0072 39.5258 67.568 42 64.5591 42C61.5503 42 59.1111 39.5258 59.1111 36.4737C59.1111 33.4216 61.5503 30.9474 64.5591 30.9474C67.568 30.9474 70.0072 33.4216 70.0072 36.4737Z" fill="#D9D9D9"/>
<path d="M15.6631 30.9474H60.6093C58.636 32.3111 57.7491 33.8487 57.7491 36.4737H18.5233C18.5233 34.4013 17.9365 32.4749 15.6631 30.9474Z" fill="#D9D9D9"/>
<path d="M6.26523 15.75H27.2401V29.2895H6.26523V15.75Z" fill="#D9D9D9"/>
<path d="M29.147 8.28947H37.5914V29.2895H29.147V8.28947Z" fill="#D9D9D9"/>
<path d="M31.5986 10.5H35.1398V26.5263H31.5986V10.5Z" fill="black"/>
<path d="M29.147 19.8947H37.5914V22.9342H29.147V19.8947Z" fill="#D9D9D9"/>
<path d="M36.7742 7.04605C36.7742 8.95361 35.2497 10.5 33.3692 10.5C31.4886 10.5 29.9642 8.95361 29.9642 7.04605C29.9642 5.13849 31.4886 3.59211 33.3692 3.59211C35.2497 3.59211 36.7742 5.13849 36.7742 7.04605Z" fill="#D9D9D9"/>
<path d="M39.4982 0H55.5699C63.5434 0 70.0072 6.55667 70.0072 14.6447V29.2895H39.4982V0Z" fill="#D9D9D9"/>
<path d="M41.9498 2.21053H55.2975C62.2179 2.21053 67.828 7.90122 67.828 14.9211V19.8947H41.9498V2.21053Z" fill="black"/>
<path d="M76 30.9474H68.3728C70.3461 32.3111 71.233 33.8487 71.233 36.4737C73.957 36.4737 76 34.5395 76 30.9474Z" fill="#D9D9D9"/>
<path d="M41.9498 22.9342H67.828V26.5263H41.9498V22.9342Z" fill="black"/>
<path d="M62.9247 19.8947C62.9247 24.4729 59.266 28.1842 54.7527 28.1842C50.2394 28.1842 46.5806 24.4729 46.5806 19.8947C46.5806 15.3166 50.2394 11.6053 54.7527 11.6053C59.266 11.6053 62.9247 15.3166 62.9247 19.8947Z" fill="#D9D9D9"/>
<path d="M0 30.9474H7.62724C5.65389 32.3111 4.76702 33.8487 4.76702 36.4737C2.04301 36.4737 0 34.5395 0 30.9474Z" fill="#D9D9D9"/>
<path d="M69.4624 14.9211H73.8208C75.0243 14.9211 76 15.9107 76 17.1316V24.3158C76 25.5366 75.0243 26.5263 73.8208 26.5263H69.4624V14.9211Z" fill="#D9D9D9"/>
<path d="M70.8244 14.6447C70.8244 13.8817 71.4342 13.2632 72.1864 13.2632H72.4588C73.211 13.2632 73.8208 13.8817 73.8208 14.6447V14.9211H70.8244V14.6447Z" fill="#D9D9D9"/>
<path d="M3.26882 22.1053C3.26882 20.8844 4.24448 19.8947 5.44803 19.8947H6.26523V26.5263H5.44803C4.24448 26.5263 3.26882 25.5366 3.26882 24.3158V22.1053Z" fill="#D9D9D9"/>
</svg>
