<svg width="506" height="506" viewBox="0 0 506 506" fill="none" xmlns="http://www.w3.org/2000/svg">
<path d="M253 453L253 503" stroke="url(#paint0_linear_120_1957)" stroke-width="6" stroke-linecap="round"/>
<path d="M153 426.199L128 469.5" stroke="url(#paint1_linear_120_1957)" stroke-width="6" stroke-linecap="round"/>
<path d="M123.5 431L106 455.254" stroke="url(#paint2_linear_120_1957)" stroke-width="6" stroke-linecap="round"/>
<path d="M106 416L86 438.786" stroke="url(#paint3_linear_120_1957)" stroke-width="6" stroke-linecap="round"/>
<path d="M90 400L67 420.283" stroke="url(#paint4_linear_120_1957)" stroke-width="6" stroke-linecap="round"/>
<path d="M75 382L51 399.946" stroke="url(#paint5_linear_120_1957)" stroke-width="6" stroke-linecap="round"/>
<path d="M207.237 468.156L201 497.5" stroke="url(#paint6_linear_120_1957)" stroke-width="6" stroke-linecap="round"/>
<path d="M185.228 462.357L175.958 490.888" stroke="url(#paint7_linear_120_1957)" stroke-width="6" stroke-linecap="round"/>
<path d="M163.237 453.922L151.035 481.328" stroke="url(#paint8_linear_120_1957)" stroke-width="6" stroke-linecap="round"/>
<path d="M230.136 472L227 501.836" stroke="url(#paint9_linear_120_1957)" stroke-width="6" stroke-linecap="round"/>
<path d="M79.2952 352.653L36 378" stroke="url(#paint10_linear_120_1957)" stroke-width="6" stroke-linecap="round"/>
<path d="M53 342L25 354.684" stroke="url(#paint11_linear_120_1957)" stroke-width="6" stroke-linecap="round"/>
<path d="M44 321L15 330.254" stroke="url(#paint12_linear_120_1957)" stroke-width="6" stroke-linecap="round"/>
<path d="M37.9618 298.808L7.99999 304.978" stroke="url(#paint13_linear_120_1957)" stroke-width="6" stroke-linecap="round"/>
<path d="M34 276L4 279.132" stroke="url(#paint14_linear_120_1957)" stroke-width="6" stroke-linecap="round"/>
<path d="M53 253H3" stroke="url(#paint15_linear_120_1957)" stroke-width="6" stroke-linecap="round"/>
<path d="M453 253H503" stroke="url(#paint16_linear_120_1957)" stroke-width="6" stroke-linecap="round"/>
<path d="M471 230L501.63 227" stroke="url(#paint17_linear_120_1957)" stroke-width="6" stroke-linecap="round"/>
<path d="M468 207L497.537 201" stroke="url(#paint18_linear_120_1957)" stroke-width="6" stroke-linecap="round"/>
<path d="M462 185L490.764 176" stroke="url(#paint19_linear_120_1957)" stroke-width="6" stroke-linecap="round"/>
<path d="M454 163L481.386 151" stroke="url(#paint20_linear_120_1957)" stroke-width="6" stroke-linecap="round"/>
<path d="M426 153L469.506 128" stroke="url(#paint21_linear_120_1957)" stroke-width="6" stroke-linecap="round"/>
<path d="M430 124L455.254 106" stroke="url(#paint22_linear_120_1957)" stroke-width="6" stroke-linecap="round"/>
<path d="M416 106L438.786 86" stroke="url(#paint23_linear_120_1957)" stroke-width="6" stroke-linecap="round"/>
<path d="M400 90L420.283 67" stroke="url(#paint24_linear_120_1957)" stroke-width="6" stroke-linecap="round"/>
<path d="M382 76L399.946 51" stroke="url(#paint25_linear_120_1957)" stroke-width="6" stroke-linecap="round"/>
<path d="M353 80L378 36" stroke="url(#paint26_linear_120_1957)" stroke-width="6" stroke-linecap="round"/>
<path d="M342 53L354.684 25" stroke="url(#paint27_linear_120_1957)" stroke-width="6" stroke-linecap="round"/>
<path d="M321 44L330.254 15" stroke="url(#paint28_linear_120_1957)" stroke-width="6" stroke-linecap="round"/>
<path d="M298 38L304.978 7.99999" stroke="url(#paint29_linear_120_1957)" stroke-width="6" stroke-linecap="round"/>
<path d="M276 34L279.132 4.00001" stroke="url(#paint30_linear_120_1957)" stroke-width="6" stroke-linecap="round"/>
<path d="M253 53V3" stroke="url(#paint31_linear_120_1957)" stroke-width="6" stroke-linecap="round"/>
<path d="M230 34L227 4" stroke="url(#paint32_linear_120_1957)" stroke-width="6" stroke-linecap="round"/>
<path d="M207 38L201 8" stroke="url(#paint33_linear_120_1957)" stroke-width="6" stroke-linecap="round"/>
<path d="M185 44L176 15" stroke="url(#paint34_linear_120_1957)" stroke-width="6" stroke-linecap="round"/>
<path d="M163 53L151 25" stroke="url(#paint35_linear_120_1957)" stroke-width="6" stroke-linecap="round"/>
<path d="M153 79.5L128 36" stroke="url(#paint36_linear_120_1957)" stroke-width="6" stroke-linecap="round"/>
<path d="M124 76L106 51" stroke="url(#paint37_linear_120_1957)" stroke-width="6" stroke-linecap="round"/>
<path d="M106 90L86 67" stroke="url(#paint38_linear_120_1957)" stroke-width="6" stroke-linecap="round"/>
<path d="M90 106L67 86" stroke="url(#paint39_linear_120_1957)" stroke-width="6" stroke-linecap="round"/>
<path d="M75 124L51 106" stroke="url(#paint40_linear_120_1957)" stroke-width="6" stroke-linecap="round"/>
<path d="M79 153L36 128" stroke="url(#paint41_linear_120_1957)" stroke-width="6" stroke-linecap="round"/>
<path d="M53 163L25 151" stroke="url(#paint42_linear_120_1957)" stroke-width="6" stroke-linecap="round"/>
<path d="M44 185L15 176" stroke="url(#paint43_linear_120_1957)" stroke-width="6" stroke-linecap="round"/>
<path d="M38 207L8 201" stroke="url(#paint44_linear_120_1957)" stroke-width="6" stroke-linecap="round"/>
<path d="M34 230L4 227" stroke="url(#paint45_linear_120_1957)" stroke-width="6" stroke-linecap="round"/>
<rect x="144" y="153" width="218" height="218" rx="55" fill="url(#paint46_radial_120_1957)"/>
<rect x="144" y="154" width="218" height="213.64" rx="55" fill="black"/>
<path d="M502.5 256.5C502.5 257.052 502.948 257.5 503.5 257.5C504.052 257.5 504.5 257.052 504.5 256.5H502.5ZM256.51 503C109.575 501.506 3.99998 383.468 3.99998 253H1.99998C1.99998 384.532 108.425 503.494 256.49 505L256.51 503ZM3.99998 253C3.99998 122.518 109.586 4 253 4V2C108.414 2 1.99998 121.482 1.99998 253H3.99998ZM253 4C396.401 4 502.5 125.504 502.5 256.5H504.5C504.5 124.496 397.599 2 253 2V4Z" fill="url(#paint47_radial_120_1957)"/>
<rect x="159" y="124" width="188" height="188" rx="50" fill="url(#paint48_radial_120_1957)"/>
<rect x="159" y="124" width="188" height="184.24" rx="50" fill="black"/>
<defs>
<linearGradient id="paint0_linear_120_1957" x1="253" y1="454.278" x2="253" y2="503" gradientUnits="userSpaceOnUse">
<stop offset="0.65625" stop-color="#E6AF2E"/>
<stop offset="1" stop-color="#E6AF2E" stop-opacity="0"/>
</linearGradient>
<linearGradient id="paint1_linear_120_1957" x1="152.361" y1="427.305" x2="128" y2="469.5" gradientUnits="userSpaceOnUse">
<stop offset="0.65625" stop-color="#E6AF2E"/>
<stop offset="1" stop-color="#E6AF2E" stop-opacity="0"/>
</linearGradient>
<linearGradient id="paint2_linear_120_1957" x1="123.367" y1="431.853" x2="106" y2="455.254" gradientUnits="userSpaceOnUse">
<stop offset="0.276042" stop-color="#E6AF2E"/>
<stop offset="1" stop-color="#E6AF2E" stop-opacity="0"/>
</linearGradient>
<linearGradient id="paint3_linear_120_1957" x1="105.489" y1="416.582" x2="86" y2="438.786" gradientUnits="userSpaceOnUse">
<stop offset="0.276042" stop-color="#E6AF2E"/>
<stop offset="1" stop-color="#E6AF2E" stop-opacity="0"/>
</linearGradient>
<linearGradient id="paint4_linear_120_1957" x1="89.4122" y1="400.518" x2="67" y2="420.283" gradientUnits="userSpaceOnUse">
<stop offset="0.276042" stop-color="#E6AF2E"/>
<stop offset="1" stop-color="#E6AF2E" stop-opacity="0"/>
</linearGradient>
<linearGradient id="paint5_linear_120_1957" x1="74.3866" y1="382.459" x2="51" y2="399.946" gradientUnits="userSpaceOnUse">
<stop offset="0.276042" stop-color="#E6AF2E"/>
<stop offset="1" stop-color="#E6AF2E" stop-opacity="0"/>
</linearGradient>
<linearGradient id="paint6_linear_120_1957" x1="207.078" y1="468.906" x2="201" y2="497.5" gradientUnits="userSpaceOnUse">
<stop offset="0.276042" stop-color="#E6AF2E"/>
<stop offset="1" stop-color="#E6AF2E" stop-opacity="0"/>
</linearGradient>
<linearGradient id="paint7_linear_120_1957" x1="184.991" y1="463.086" x2="175.958" y2="490.888" gradientUnits="userSpaceOnUse">
<stop offset="0.276042" stop-color="#E6AF2E"/>
<stop offset="1" stop-color="#E6AF2E" stop-opacity="0"/>
</linearGradient>
<linearGradient id="paint8_linear_120_1957" x1="162.925" y1="454.622" x2="151.035" y2="481.328" gradientUnits="userSpaceOnUse">
<stop offset="0.276042" stop-color="#E6AF2E"/>
<stop offset="1" stop-color="#E6AF2E" stop-opacity="0"/>
</linearGradient>
<linearGradient id="paint9_linear_120_1957" x1="230.056" y1="472.763" x2="227" y2="501.836" gradientUnits="userSpaceOnUse">
<stop offset="0.276042" stop-color="#E6AF2E"/>
<stop offset="1" stop-color="#E6AF2E" stop-opacity="0"/>
</linearGradient>
<linearGradient id="paint10_linear_120_1957" x1="78.1913" y1="353.306" x2="36.1038" y2="378.176" gradientUnits="userSpaceOnUse">
<stop offset="0.65625" stop-color="#E6AF2E"/>
<stop offset="1" stop-color="#E6AF2E" stop-opacity="0"/>
</linearGradient>
<linearGradient id="paint11_linear_120_1957" x1="52.2844" y1="342.324" x2="25" y2="354.684" gradientUnits="userSpaceOnUse">
<stop offset="0.276042" stop-color="#E6AF2E"/>
<stop offset="1" stop-color="#E6AF2E" stop-opacity="0"/>
</linearGradient>
<linearGradient id="paint12_linear_120_1957" x1="43.2588" y1="321.236" x2="15" y2="330.254" gradientUnits="userSpaceOnUse">
<stop offset="0.276042" stop-color="#E6AF2E"/>
<stop offset="1" stop-color="#E6AF2E" stop-opacity="0"/>
</linearGradient>
<linearGradient id="paint13_linear_120_1957" x1="37.2333" y1="299.153" x2="8.00002" y2="304.978" gradientUnits="userSpaceOnUse">
<stop offset="0.276042" stop-color="#E6AF2E"/>
<stop offset="1" stop-color="#E6AF2E" stop-opacity="0"/>
</linearGradient>
<linearGradient id="paint14_linear_120_1957" x1="33.2333" y1="276.08" x2="4.00003" y2="279.132" gradientUnits="userSpaceOnUse">
<stop offset="0.276042" stop-color="#E6AF2E"/>
<stop offset="1" stop-color="#E6AF2E" stop-opacity="0"/>
</linearGradient>
<linearGradient id="paint15_linear_120_1957" x1="51.7222" y1="253" x2="3.00005" y2="253" gradientUnits="userSpaceOnUse">
<stop offset="0.65625" stop-color="#E6AF2E"/>
<stop offset="1" stop-color="#E6AF2E" stop-opacity="0"/>
</linearGradient>
<linearGradient id="paint16_linear_120_1957" x1="454.278" y1="253" x2="503" y2="253" gradientUnits="userSpaceOnUse">
<stop offset="0.65625" stop-color="#E62E2E"/>
<stop offset="1" stop-color="#E6AF2E" stop-opacity="0"/>
</linearGradient>
<linearGradient id="paint17_linear_120_1957" x1="471.783" y1="229.923" x2="501.63" y2="227" gradientUnits="userSpaceOnUse">
<stop offset="0.276042" stop-color="#E62E2E"/>
<stop offset="1" stop-color="#E6AF2E" stop-opacity="0"/>
</linearGradient>
<linearGradient id="paint18_linear_120_1957" x1="468.755" y1="206.847" x2="497.537" y2="201" gradientUnits="userSpaceOnUse">
<stop offset="0.276042" stop-color="#E62E2E"/>
<stop offset="1" stop-color="#E6AF2E" stop-opacity="0"/>
</linearGradient>
<linearGradient id="paint19_linear_120_1957" x1="462.735" y1="184.77" x2="490.764" y2="176" gradientUnits="userSpaceOnUse">
<stop offset="0.276042" stop-color="#E62E2E"/>
<stop offset="1" stop-color="#E6AF2E" stop-opacity="0"/>
</linearGradient>
<linearGradient id="paint20_linear_120_1957" x1="454.552" y1="162.344" x2="481.386" y2="151" gradientUnits="userSpaceOnUse">
<stop offset="0.276042" stop-color="#E62E2E"/>
<stop offset="1" stop-color="#E6AF2E" stop-opacity="0"/>
</linearGradient>
<linearGradient id="paint21_linear_120_1957" x1="426.7" y1="151.614" x2="469.506" y2="128" gradientUnits="userSpaceOnUse">
<stop offset="0.65625" stop-color="#E62E2E"/>
<stop offset="1" stop-color="#E6AF2E" stop-opacity="0"/>
</linearGradient>
<linearGradient id="paint22_linear_120_1957" x1="430.645" y1="123.54" x2="455.254" y2="106" gradientUnits="userSpaceOnUse">
<stop offset="0.276042" stop-color="#E0E2DB"/>
<stop offset="1" stop-color="#E6AF2E" stop-opacity="0"/>
</linearGradient>
<linearGradient id="paint23_linear_120_1957" x1="416.582" y1="105.489" x2="438.786" y2="86" gradientUnits="userSpaceOnUse">
<stop offset="0.276042" stop-color="#E0E2DB"/>
<stop offset="1" stop-color="#E6AF2E" stop-opacity="0"/>
</linearGradient>
<linearGradient id="paint24_linear_120_1957" x1="400.518" y1="89.4122" x2="420.283" y2="67" gradientUnits="userSpaceOnUse">
<stop offset="0.276042" stop-color="#E0E2DB"/>
<stop offset="1" stop-color="#E6AF2E" stop-opacity="0"/>
</linearGradient>
<linearGradient id="paint25_linear_120_1957" x1="382.459" y1="75.3611" x2="399.946" y2="51" gradientUnits="userSpaceOnUse">
<stop offset="0.276042" stop-color="#E0E2DB"/>
<stop offset="1" stop-color="#E6AF2E" stop-opacity="0"/>
</linearGradient>
<linearGradient id="paint26_linear_120_1957" x1="353.639" y1="78.8755" x2="378" y2="36.0001" gradientUnits="userSpaceOnUse">
<stop offset="0.65625" stop-color="#E6AF2E"/>
<stop offset="1" stop-color="#E6AF2E" stop-opacity="0"/>
</linearGradient>
<linearGradient id="paint27_linear_120_1957" x1="342.324" y1="52.2844" x2="354.684" y2="25" gradientUnits="userSpaceOnUse">
<stop offset="0.276042" stop-color="#E6AF2E"/>
<stop offset="1" stop-color="#E6AF2E" stop-opacity="0"/>
</linearGradient>
<linearGradient id="paint28_linear_120_1957" x1="321.237" y1="43.2589" x2="330.254" y2="15" gradientUnits="userSpaceOnUse">
<stop offset="0.276042" stop-color="#E6AF2E"/>
<stop offset="1" stop-color="#E6AF2E" stop-opacity="0"/>
</linearGradient>
<linearGradient id="paint29_linear_120_1957" x1="298.178" y1="37.2333" x2="304.978" y2="8.00002" gradientUnits="userSpaceOnUse">
<stop offset="0.276042" stop-color="#E6AF2E"/>
<stop offset="1" stop-color="#E6AF2E" stop-opacity="0"/>
</linearGradient>
<linearGradient id="paint30_linear_120_1957" x1="276.08" y1="33.2333" x2="279.132" y2="4.00005" gradientUnits="userSpaceOnUse">
<stop offset="0.276042" stop-color="#E6AF2E"/>
<stop offset="1" stop-color="#E6AF2E" stop-opacity="0"/>
</linearGradient>
<linearGradient id="paint31_linear_120_1957" x1="253" y1="51.7222" x2="253" y2="3.00005" gradientUnits="userSpaceOnUse">
<stop offset="0.65625" stop-color="#E6AF2E"/>
<stop offset="1" stop-color="#E6AF2E" stop-opacity="0"/>
</linearGradient>
<linearGradient id="paint32_linear_120_1957" x1="229.923" y1="33.2333" x2="227" y2="4.00003" gradientUnits="userSpaceOnUse">
<stop offset="0.276042" stop-color="#E6AF2E"/>
<stop offset="1" stop-color="#E6AF2E" stop-opacity="0"/>
</linearGradient>
<linearGradient id="paint33_linear_120_1957" x1="206.847" y1="37.2333" x2="201" y2="8.00003" gradientUnits="userSpaceOnUse">
<stop offset="0.276042" stop-color="#E6AF2E"/>
<stop offset="1" stop-color="#E6AF2E" stop-opacity="0"/>
</linearGradient>
<linearGradient id="paint34_linear_120_1957" x1="184.77" y1="43.2589" x2="176" y2="15" gradientUnits="userSpaceOnUse">
<stop offset="0.276042" stop-color="#E6AF2E"/>
<stop offset="1" stop-color="#E6AF2E" stop-opacity="0"/>
</linearGradient>
<linearGradient id="paint35_linear_120_1957" x1="162.693" y1="52.2844" x2="151" y2="25" gradientUnits="userSpaceOnUse">
<stop offset="0.276042" stop-color="#E6AF2E"/>
<stop offset="1" stop-color="#E6AF2E" stop-opacity="0"/>
</linearGradient>
<linearGradient id="paint36_linear_120_1957" x1="151.405" y1="78.9096" x2="128" y2="36" gradientUnits="userSpaceOnUse">
<stop offset="0.65625" stop-color="#E6AF2E"/>
<stop offset="1" stop-color="#E6AF2E" stop-opacity="0"/>
</linearGradient>
<linearGradient id="paint37_linear_120_1957" x1="123.54" y1="75.3611" x2="106" y2="51" gradientUnits="userSpaceOnUse">
<stop offset="0.276042" stop-color="#E6AF2E"/>
<stop offset="1" stop-color="#E6AF2E" stop-opacity="0"/>
</linearGradient>
<linearGradient id="paint38_linear_120_1957" x1="105.489" y1="89.4122" x2="86" y2="67" gradientUnits="userSpaceOnUse">
<stop offset="0.276042" stop-color="#E6AF2E"/>
<stop offset="1" stop-color="#E6AF2E" stop-opacity="0"/>
</linearGradient>
<linearGradient id="paint39_linear_120_1957" x1="89.4122" y1="105.489" x2="67" y2="86" gradientUnits="userSpaceOnUse">
<stop offset="0.276042" stop-color="#E6AF2E"/>
<stop offset="1" stop-color="#E6AF2E" stop-opacity="0"/>
</linearGradient>
<linearGradient id="paint40_linear_120_1957" x1="74.3867" y1="123.54" x2="51" y2="106" gradientUnits="userSpaceOnUse">
<stop offset="0.276042" stop-color="#E6AF2E"/>
<stop offset="1" stop-color="#E6AF2E" stop-opacity="0"/>
</linearGradient>
<linearGradient id="paint41_linear_120_1957" x1="77.9011" y1="152.361" x2="36.0001" y2="128" gradientUnits="userSpaceOnUse">
<stop offset="0.65625" stop-color="#E6AF2E"/>
<stop offset="1" stop-color="#E6AF2E" stop-opacity="0"/>
</linearGradient>
<linearGradient id="paint42_linear_120_1957" x1="52.2844" y1="162.693" x2="25" y2="151" gradientUnits="userSpaceOnUse">
<stop offset="0.276042" stop-color="#E6AF2E"/>
<stop offset="1" stop-color="#E6AF2E" stop-opacity="0"/>
</linearGradient>
<linearGradient id="paint43_linear_120_1957" x1="43.2589" y1="184.77" x2="15" y2="176" gradientUnits="userSpaceOnUse">
<stop offset="0.276042" stop-color="#E6AF2E"/>
<stop offset="1" stop-color="#E6AF2E" stop-opacity="0"/>
</linearGradient>
<linearGradient id="paint44_linear_120_1957" x1="37.2333" y1="206.847" x2="8.00004" y2="201" gradientUnits="userSpaceOnUse">
<stop offset="0.276042" stop-color="#E6AF2E"/>
<stop offset="1" stop-color="#E6AF2E" stop-opacity="0"/>
</linearGradient>
<linearGradient id="paint45_linear_120_1957" x1="33.2333" y1="229.923" x2="4.00003" y2="227" gradientUnits="userSpaceOnUse">
<stop offset="0.276042" stop-color="#E6AF2E"/>
<stop offset="1" stop-color="#E6AF2E" stop-opacity="0"/>
</linearGradient>
<radialGradient id="paint46_radial_120_1957" cx="0" cy="0" r="1" gradientUnits="userSpaceOnUse" gradientTransform="translate(253 392.8) rotate(-90) scale(138.793)">
<stop stop-color="#E6AF2E"/>
<stop offset="1" stop-color="#D9D9D9" stop-opacity="0"/>
</radialGradient>
<radialGradient id="paint47_radial_120_1957" cx="0" cy="0" r="1" gradientUnits="userSpaceOnUse" gradientTransform="translate(87.4999 69.5) rotate(44.8131) scale(542 541.459)">
<stop stop-color="#E0E2DB"/>
<stop offset="1" stop-color="#E0E2DB" stop-opacity="0"/>
</radialGradient>
<radialGradient id="paint48_radial_120_1957" cx="0" cy="0" r="1" gradientUnits="userSpaceOnUse" gradientTransform="translate(253 330.8) rotate(-90) scale(119.693)">
<stop stop-color="#E0E2DB"/>
<stop offset="0.0001" stop-color="#E0E2DB" stop-opacity="0.989583"/>
<stop offset="1" stop-color="#D9D9D9" stop-opacity="0"/>
</radialGradient>
</defs>
</svg>
