<svg width="29" height="55" viewBox="0 0 29 55" fill="none" xmlns="http://www.w3.org/2000/svg">
<path d="M21.1008 5.68652C21.1008 5.20833 21.1876 4.75977 21.3611 4.34082C21.5346 3.92188 21.7758 3.55583 22.0847 3.24268C22.3936 2.92952 22.7618 2.68197 23.1892 2.5C23.6166 2.31803 24.0863 2.22705 24.5984 2.22705C25.1104 2.22705 25.5802 2.31803 26.0076 2.5C26.4392 2.68197 26.8095 2.92952 27.1184 3.24268C27.4273 3.55583 27.6664 3.92188 27.8357 4.34082C28.0092 4.75977 28.0959 5.20833 28.0959 5.68652C28.0959 6.16471 28.0113 6.6154 27.842 7.03857C27.677 7.45752 27.44 7.82568 27.1311 8.14307C26.8264 8.45622 26.4583 8.70378 26.0266 8.88574C25.5992 9.06771 25.1231 9.15869 24.5984 9.15869C24.0694 9.15869 23.5891 9.06771 23.1575 8.88574C22.7301 8.70378 22.364 8.45622 22.0593 8.14307C21.7546 7.82992 21.5177 7.46387 21.3484 7.04492C21.1833 6.62174 21.1008 6.16895 21.1008 5.68652ZM22.9988 5.68652C22.9988 5.9362 23.0411 6.16683 23.1257 6.37842C23.2104 6.58577 23.3246 6.76562 23.4685 6.91797C23.6166 7.07031 23.7859 7.1888 23.9763 7.27344C24.171 7.35807 24.3783 7.40039 24.5984 7.40039C24.8227 7.40039 25.03 7.36019 25.2205 7.27979C25.4151 7.19515 25.5823 7.07666 25.7219 6.92432C25.8658 6.77197 25.9779 6.59212 26.0583 6.38477C26.1388 6.17318 26.179 5.94043 26.179 5.68652C26.179 5.42415 26.1388 5.18717 26.0583 4.97559C25.9779 4.764 25.8658 4.58415 25.7219 4.43604C25.5823 4.28792 25.4151 4.17578 25.2205 4.09961C25.03 4.01921 24.8227 3.98112 24.5984 3.98535C24.3783 3.98112 24.171 4.01921 23.9763 4.09961C23.7859 4.17578 23.6166 4.28792 23.4685 4.43604C23.3246 4.58415 23.2104 4.764 23.1257 4.97559C23.0411 5.18717 22.9988 5.42415 22.9988 5.68652Z" fill="#E0E2DB"/>
<path d="M15.9731 7.45954C15.9732 0.182138 6.51785 0.178172 6.51769 7.45954V37.1722C0.0983615 39.5 -0.401642 53.5 11.0984 53.5C22.5983 53.5 22.0984 39.5 15.9731 37.1722V7.45954Z" stroke="#E0E2DB" stroke-width="3"/>
<path d="M15.5984 13H13.5984H11.5984M15.5984 19H12.9317M15.5984 25H11.5984M15.5984 31H12.9317M15.5984 37H11.5984" stroke="#E0E2DB" stroke-width="3" stroke-linecap="round"/>
<path d="M10.5984 45H11.5984" stroke="#E0E2DB" stroke-width="7" stroke-linecap="round"/>
</svg>
