<svg width="300" height="100" viewBox="0 0 300 100" fill="none" xmlns="http://www.w3.org/2000/svg">
<path d="M65.7106 66.917L89.0852 28.5981C90.6443 26.0421 94.3557 26.0421 95.9148 28.5981L119.289 66.917C120.915 69.5825 118.997 73 115.875 73H69.1255C66.0032 73 64.0847 69.5825 65.7106 66.917Z" fill="#E62E2E"/>
<g style="mix-blend-mode:multiply">
<path d="M95.9876 44.8572C95.5776 41.0476 89.4284 41.0476 89.0185 44.8572C88.8902 49.7226 89.4284 53.6191 90.6583 58.9524C91.0682 59.7143 93.1179 60.0952 93.9378 58.9524C95.1677 54 96.1207 50.6905 95.9876 44.8572Z" fill="black"/>
<path d="M93.9378 62.381C93.1179 61.619 91.4781 61.6192 90.6583 62.381C89.8384 63.1429 89.8384 64.6667 90.6582 65.4286C91.4781 66.1905 93.1179 66.1905 93.9378 65.4286C94.7577 64.6667 94.7577 63.143 93.9378 62.381Z" fill="black"/>
</g>
<g style="mix-blend-mode:multiply">
<path d="M69.4231 67.9807L91.6454 31.4066C92.0348 30.7656 92.9652 30.7656 93.3546 31.4066L115.577 67.9807C115.982 68.6472 115.502 69.5 114.722 69.5H70.2777C69.4979 69.5 69.0182 68.6472 69.4231 67.9807Z" stroke="black" stroke-width="2"/>
</g>
<path d="M214 37.1621C214 36.2311 214.166 35.388 214.498 34.6328C214.837 33.8711 215.289 33.2233 215.855 32.6895C216.422 32.1491 217.076 31.7324 217.818 31.4395C218.567 31.1465 219.355 31 220.182 31C220.82 31 221.415 31.1172 221.969 31.3516C222.529 31.5859 223.014 31.9082 223.424 32.3184C223.834 32.722 224.156 33.2005 224.391 33.7539C224.625 34.3008 224.742 34.89 224.742 35.5215C224.742 36.4134 224.583 37.2337 224.264 37.9824C223.951 38.7311 223.518 39.3789 222.965 39.9258C222.418 40.4727 221.767 40.8991 221.012 41.2051C220.263 41.5111 219.452 41.6641 218.58 41.6641C217.923 41.6641 217.314 41.5469 216.754 41.3125C216.201 41.0716 215.719 40.7493 215.309 40.3457C214.898 39.9355 214.576 39.457 214.342 38.9102C214.114 38.3633 214 37.7806 214 37.1621ZM217.184 36.8008C217.184 37.0872 217.226 37.3509 217.311 37.5918C217.395 37.8262 217.512 38.0312 217.662 38.207C217.818 38.3763 218.001 38.5098 218.209 38.6074C218.424 38.6986 218.655 38.7441 218.902 38.7441C219.241 38.7441 219.57 38.6725 219.889 38.5293C220.208 38.3796 220.491 38.1777 220.738 37.9238C220.992 37.6634 221.194 37.3607 221.344 37.0156C221.493 36.6641 221.568 36.2865 221.568 35.8828C221.568 35.5508 221.52 35.2643 221.422 35.0234C221.331 34.776 221.207 34.571 221.051 34.4082C220.895 34.2454 220.712 34.125 220.504 34.0469C220.296 33.9622 220.074 33.9199 219.84 33.9199C219.469 33.9199 219.12 33.998 218.795 34.1543C218.476 34.304 218.196 34.5091 217.955 34.7695C217.721 35.0299 217.532 35.3359 217.389 35.6875C217.252 36.0326 217.184 36.4036 217.184 36.8008Z" fill="#E62E2E"/>
<path d="M250.979 43.6934C250.572 42.6309 249.854 41.7715 248.822 41.1152C247.807 40.4434 246.541 40.1074 245.025 40.1074C243.963 40.1074 242.932 40.2793 241.932 40.623C240.932 40.9512 239.986 41.4199 239.096 42.0293C238.221 42.623 237.416 43.334 236.682 44.1621C235.963 44.9902 235.338 45.8965 234.807 46.8809C234.291 47.8652 233.885 48.9121 233.588 50.0215C233.307 51.1152 233.166 52.2402 233.166 53.3965C233.166 54.5684 233.33 55.6387 233.658 56.6074C233.986 57.5605 234.455 58.3887 235.064 59.0918C235.689 59.7793 236.432 60.3184 237.291 60.709C238.166 61.084 239.143 61.2715 240.221 61.2715C241.08 61.2715 241.885 61.1543 242.635 60.9199C243.385 60.6855 244.08 60.3652 244.721 59.959C245.377 59.5371 245.971 59.0527 246.502 58.5059C247.033 57.9434 247.518 57.3418 247.955 56.7012L255.385 60.4043C253.604 63.2168 251.361 65.3809 248.658 66.8965C245.971 68.3965 242.854 69.1465 239.307 69.1465C237.182 69.1465 235.221 68.7871 233.424 68.0684C231.643 67.334 230.096 66.3105 228.783 64.998C227.486 63.6855 226.471 62.1152 225.736 60.2871C225.018 58.4434 224.658 56.4043 224.658 54.1699C224.658 51.9512 224.939 49.873 225.502 47.9355C226.064 45.9824 226.838 44.1934 227.822 42.5684C228.822 40.9434 229.994 39.4902 231.338 38.209C232.697 36.9277 234.166 35.8496 235.744 34.9746C237.338 34.084 239.002 33.4043 240.736 32.9355C242.486 32.4668 244.252 32.2324 246.033 32.2324C247.455 32.2324 248.768 32.3809 249.971 32.6777C251.174 32.9746 252.275 33.3965 253.275 33.9434C254.275 34.4902 255.072 35.0684 255.666 35.6777C256.275 36.2715 256.76 36.8027 257.119 37.2715H261.572L260.096 43.6934H250.979Z" fill="#E62E2E"/>
<path d="M100 99C45.6575 99 1.54146 55.2156 1.00495 1H299V99H100Z" stroke="url(#paint0_linear_120_2042)" stroke-width="2"/>
<defs>
<linearGradient id="paint0_linear_120_2042" x1="0" y1="0" x2="300" y2="0" gradientUnits="userSpaceOnUse">
<stop stop-color="#E6AF2E"/>
<stop offset="0.494792" stop-color="#E0E2DB"/>
<stop offset="1" stop-color="#E0E2DB" stop-opacity="0"/>
</linearGradient>
</defs>
</svg>
